<mxfile host="app.diagrams.net" agent="Mozilla/5.0 (X11; Ubuntu; Linux x86_64; rv:135.0) Gecko/20100101 Firefox/135.0" version="26.0.16">
  <diagram id="C5RBs43oDa-KdzZeNtuy" name="Page-1">
    <mxGraphModel dx="934" dy="1356" grid="1" gridSize="10" guides="1" tooltips="1" connect="1" arrows="1" fold="1" page="1" pageScale="1" pageWidth="827" pageHeight="1169" math="0" shadow="0">
      <root>
        <mxCell id="WIyWlLk6GJQsqaUBKTNV-0" />
        <mxCell id="WIyWlLk6GJQsqaUBKTNV-1" parent="WIyWlLk6GJQsqaUBKTNV-0" />
        <mxCell id="TI1AnW4KjMh2wORwY0Ot-41" style="edgeStyle=orthogonalEdgeStyle;rounded=0;orthogonalLoop=1;jettySize=auto;html=1;entryX=0.5;entryY=0;entryDx=0;entryDy=0;" parent="WIyWlLk6GJQsqaUBKTNV-1" source="TI1AnW4KjMh2wORwY0Ot-42" target="TI1AnW4KjMh2wORwY0Ot-44" edge="1">
          <mxGeometry relative="1" as="geometry" />
        </mxCell>
        <mxCell id="TI1AnW4KjMh2wORwY0Ot-42" value="&lt;font style=&quot;font-size: 12px;&quot;&gt;Create copy of solution&lt;/font&gt;" style="rounded=1;whiteSpace=wrap;html=1;fontSize=12;glass=0;strokeWidth=1;shadow=0;fillColor=none;" parent="WIyWlLk6GJQsqaUBKTNV-1" vertex="1">
          <mxGeometry x="373.41" y="70" width="138.5" height="30" as="geometry" />
        </mxCell>
        <mxCell id="TI1AnW4KjMh2wORwY0Ot-44" value="Fix number of iterations" style="rounded=1;whiteSpace=wrap;html=1;fillColor=none;" parent="WIyWlLk6GJQsqaUBKTNV-1" vertex="1">
          <mxGeometry x="370.22" y="126" width="144.88" height="34" as="geometry" />
        </mxCell>
        <mxCell id="MOzvQSzUL8_ZoRT9jFq6-1" style="edgeStyle=orthogonalEdgeStyle;rounded=0;orthogonalLoop=1;jettySize=auto;html=1;exitX=0.5;exitY=1;exitDx=0;exitDy=0;entryX=0.5;entryY=0;entryDx=0;entryDy=0;" edge="1" parent="WIyWlLk6GJQsqaUBKTNV-1" source="TI1AnW4KjMh2wORwY0Ot-59" target="TI1AnW4KjMh2wORwY0Ot-62">
          <mxGeometry relative="1" as="geometry" />
        </mxCell>
        <mxCell id="TI1AnW4KjMh2wORwY0Ot-59" value="Sample random route &lt;i&gt;L&#39;&lt;/i&gt;" style="rounded=1;whiteSpace=wrap;html=1;fillColor=none;" parent="WIyWlLk6GJQsqaUBKTNV-1" vertex="1">
          <mxGeometry x="362.66" y="190" width="160" height="30" as="geometry" />
        </mxCell>
        <mxCell id="MOzvQSzUL8_ZoRT9jFq6-58" style="edgeStyle=orthogonalEdgeStyle;rounded=0;orthogonalLoop=1;jettySize=auto;html=1;exitX=0;exitY=0.5;exitDx=0;exitDy=0;entryX=1;entryY=0.5;entryDx=0;entryDy=0;" edge="1" parent="WIyWlLk6GJQsqaUBKTNV-1" source="TI1AnW4KjMh2wORwY0Ot-62" target="MOzvQSzUL8_ZoRT9jFq6-57">
          <mxGeometry relative="1" as="geometry" />
        </mxCell>
        <mxCell id="TI1AnW4KjMh2wORwY0Ot-62" value="Loop over nodes &lt;i&gt;v&lt;/i&gt; in &lt;i&gt;L&#39;&lt;/i&gt;" style="rounded=1;whiteSpace=wrap;html=1;fillColor=none;" parent="WIyWlLk6GJQsqaUBKTNV-1" vertex="1">
          <mxGeometry x="362.66" y="250" width="160" height="30" as="geometry" />
        </mxCell>
        <mxCell id="TI1AnW4KjMh2wORwY0Ot-89" style="edgeStyle=orthogonalEdgeStyle;rounded=0;orthogonalLoop=1;jettySize=auto;html=1;entryX=0.5;entryY=0;entryDx=0;entryDy=0;" parent="WIyWlLk6GJQsqaUBKTNV-1" source="TI1AnW4KjMh2wORwY0Ot-65" target="TI1AnW4KjMh2wORwY0Ot-68" edge="1">
          <mxGeometry relative="1" as="geometry">
            <Array as="points">
              <mxPoint x="361" y="570" />
              <mxPoint x="308" y="570" />
            </Array>
          </mxGeometry>
        </mxCell>
        <mxCell id="MOzvQSzUL8_ZoRT9jFq6-70" style="edgeStyle=orthogonalEdgeStyle;rounded=0;orthogonalLoop=1;jettySize=auto;html=1;exitX=1;exitY=0.5;exitDx=0;exitDy=0;entryX=1;entryY=0.5;entryDx=0;entryDy=0;" edge="1" parent="WIyWlLk6GJQsqaUBKTNV-1" source="TI1AnW4KjMh2wORwY0Ot-65" target="TI1AnW4KjMh2wORwY0Ot-87">
          <mxGeometry relative="1" as="geometry">
            <Array as="points">
              <mxPoint x="550" y="570" />
              <mxPoint x="550" y="463" />
            </Array>
          </mxGeometry>
        </mxCell>
        <mxCell id="TI1AnW4KjMh2wORwY0Ot-65" value="&lt;div&gt;Can &lt;i&gt;v &lt;/i&gt;be&amp;nbsp;&lt;/div&gt;&lt;div&gt;inserted&amp;nbsp;&lt;/div&gt;&lt;div&gt;in arc &lt;i&gt;i2, j2 &lt;/i&gt;at&lt;/div&gt;&lt;div&gt;lower cost?&lt;/div&gt;" style="rhombus;whiteSpace=wrap;html=1;fillColor=none;" parent="WIyWlLk6GJQsqaUBKTNV-1" vertex="1">
          <mxGeometry x="380.99" y="509" width="123.34" height="121" as="geometry" />
        </mxCell>
        <mxCell id="MOzvQSzUL8_ZoRT9jFq6-72" style="edgeStyle=orthogonalEdgeStyle;rounded=0;orthogonalLoop=1;jettySize=auto;html=1;exitX=1;exitY=0.5;exitDx=0;exitDy=0;entryX=0.5;entryY=0;entryDx=0;entryDy=0;" edge="1" parent="WIyWlLk6GJQsqaUBKTNV-1" source="TI1AnW4KjMh2wORwY0Ot-68" target="MOzvQSzUL8_ZoRT9jFq6-71">
          <mxGeometry relative="1" as="geometry" />
        </mxCell>
        <mxCell id="TI1AnW4KjMh2wORwY0Ot-68" value="&lt;div&gt;Can &lt;i&gt;w&lt;/i&gt; be inserted&amp;nbsp;&lt;/div&gt;&lt;div&gt;in some arch at&lt;/div&gt;&lt;div&gt;lower cost in the&amp;nbsp;&lt;/div&gt;&lt;div&gt;same route?&lt;/div&gt;" style="rhombus;whiteSpace=wrap;html=1;fillColor=none;" parent="WIyWlLk6GJQsqaUBKTNV-1" vertex="1">
          <mxGeometry x="228.00000000000003" y="584.5" width="159.08" height="151" as="geometry" />
        </mxCell>
        <mxCell id="TI1AnW4KjMh2wORwY0Ot-69" value="No" style="text;html=1;align=center;verticalAlign=middle;resizable=0;points=[];autosize=1;strokeColor=none;fillColor=none;" parent="WIyWlLk6GJQsqaUBKTNV-1" vertex="1">
          <mxGeometry x="493.87" y="537" width="40" height="30" as="geometry" />
        </mxCell>
        <mxCell id="TI1AnW4KjMh2wORwY0Ot-70" value="Yes" style="text;html=1;align=center;verticalAlign=middle;resizable=0;points=[];autosize=1;strokeColor=none;fillColor=none;" parent="WIyWlLk6GJQsqaUBKTNV-1" vertex="1">
          <mxGeometry x="343.87000000000006" y="537" width="40" height="30" as="geometry" />
        </mxCell>
        <mxCell id="MOzvQSzUL8_ZoRT9jFq6-3" style="edgeStyle=orthogonalEdgeStyle;rounded=0;orthogonalLoop=1;jettySize=auto;html=1;exitX=0.5;exitY=1;exitDx=0;exitDy=0;entryX=0.5;entryY=0;entryDx=0;entryDy=0;" edge="1" parent="WIyWlLk6GJQsqaUBKTNV-1" source="TI1AnW4KjMh2wORwY0Ot-85" target="TI1AnW4KjMh2wORwY0Ot-86">
          <mxGeometry relative="1" as="geometry" />
        </mxCell>
        <mxCell id="TI1AnW4KjMh2wORwY0Ot-85" value="Get previous node &lt;i&gt;i1,&lt;/i&gt; next node &lt;i&gt;j1 &lt;/i&gt;and partner node &lt;i&gt;w&lt;/i&gt; of &lt;i&gt;v&lt;/i&gt; in &lt;i&gt;L&#39;&lt;/i&gt;" style="rounded=1;whiteSpace=wrap;html=1;fillColor=none;" parent="WIyWlLk6GJQsqaUBKTNV-1" vertex="1">
          <mxGeometry x="335.09000000000003" y="307" width="213.14" height="40" as="geometry" />
        </mxCell>
        <mxCell id="MOzvQSzUL8_ZoRT9jFq6-47" style="edgeStyle=orthogonalEdgeStyle;rounded=0;orthogonalLoop=1;jettySize=auto;html=1;exitX=1;exitY=0.5;exitDx=0;exitDy=0;entryX=0.5;entryY=0;entryDx=0;entryDy=0;" edge="1" parent="WIyWlLk6GJQsqaUBKTNV-1" source="TI1AnW4KjMh2wORwY0Ot-86" target="MOzvQSzUL8_ZoRT9jFq6-46">
          <mxGeometry relative="1" as="geometry" />
        </mxCell>
        <mxCell id="TI1AnW4KjMh2wORwY0Ot-86" value="Loop over routes &lt;i&gt;L&lt;/i&gt;" style="rounded=1;whiteSpace=wrap;html=1;fillColor=none;" parent="WIyWlLk6GJQsqaUBKTNV-1" vertex="1">
          <mxGeometry x="362.66" y="373" width="160" height="30" as="geometry" />
        </mxCell>
        <mxCell id="MOzvQSzUL8_ZoRT9jFq6-6" style="edgeStyle=orthogonalEdgeStyle;rounded=0;orthogonalLoop=1;jettySize=auto;html=1;entryX=0.5;entryY=0;entryDx=0;entryDy=0;" edge="1" parent="WIyWlLk6GJQsqaUBKTNV-1" source="TI1AnW4KjMh2wORwY0Ot-87" target="TI1AnW4KjMh2wORwY0Ot-65">
          <mxGeometry relative="1" as="geometry" />
        </mxCell>
        <mxCell id="TI1AnW4KjMh2wORwY0Ot-87" value="Loop over arcs &lt;i&gt;i2, j2&lt;/i&gt; in &lt;i&gt;L&lt;/i&gt;" style="rounded=1;whiteSpace=wrap;html=1;fillColor=none;" parent="WIyWlLk6GJQsqaUBKTNV-1" vertex="1">
          <mxGeometry x="362.66" y="448" width="160" height="30" as="geometry" />
        </mxCell>
        <mxCell id="MOzvQSzUL8_ZoRT9jFq6-0" style="edgeStyle=orthogonalEdgeStyle;rounded=0;orthogonalLoop=1;jettySize=auto;html=1;entryX=0.501;entryY=-0.078;entryDx=0;entryDy=0;entryPerimeter=0;" edge="1" parent="WIyWlLk6GJQsqaUBKTNV-1" source="TI1AnW4KjMh2wORwY0Ot-44" target="TI1AnW4KjMh2wORwY0Ot-59">
          <mxGeometry relative="1" as="geometry" />
        </mxCell>
        <mxCell id="MOzvQSzUL8_ZoRT9jFq6-68" style="edgeStyle=orthogonalEdgeStyle;rounded=0;orthogonalLoop=1;jettySize=auto;html=1;entryX=0;entryY=0.5;entryDx=0;entryDy=0;" edge="1" parent="WIyWlLk6GJQsqaUBKTNV-1" source="MOzvQSzUL8_ZoRT9jFq6-8" target="MOzvQSzUL8_ZoRT9jFq6-10">
          <mxGeometry relative="1" as="geometry">
            <Array as="points">
              <mxPoint x="60" y="265" />
              <mxPoint x="60" y="850" />
            </Array>
          </mxGeometry>
        </mxCell>
        <mxCell id="MOzvQSzUL8_ZoRT9jFq6-8" value="&lt;div&gt;Finished&lt;/div&gt;&lt;div&gt;iterations?&lt;/div&gt;" style="rhombus;whiteSpace=wrap;html=1;fillColor=none;" vertex="1" parent="WIyWlLk6GJQsqaUBKTNV-1">
          <mxGeometry x="88" y="220" width="90" height="90" as="geometry" />
        </mxCell>
        <mxCell id="MOzvQSzUL8_ZoRT9jFq6-10" value="&lt;div&gt;Remove empty routes and return&lt;/div&gt;" style="rounded=1;whiteSpace=wrap;html=1;fillColor=none;" vertex="1" parent="WIyWlLk6GJQsqaUBKTNV-1">
          <mxGeometry x="347.66" y="830" width="190" height="40" as="geometry" />
        </mxCell>
        <mxCell id="MOzvQSzUL8_ZoRT9jFq6-33" value="No" style="text;html=1;align=center;verticalAlign=middle;resizable=0;points=[];autosize=1;strokeColor=none;fillColor=none;" vertex="1" parent="WIyWlLk6GJQsqaUBKTNV-1">
          <mxGeometry x="178" y="630" width="40" height="30" as="geometry" />
        </mxCell>
        <mxCell id="MOzvQSzUL8_ZoRT9jFq6-34" value="Yes" style="text;html=1;align=center;verticalAlign=middle;resizable=0;points=[];autosize=1;strokeColor=none;fillColor=none;" vertex="1" parent="WIyWlLk6GJQsqaUBKTNV-1">
          <mxGeometry x="373.99999999999994" y="630" width="40" height="30" as="geometry" />
        </mxCell>
        <mxCell id="MOzvQSzUL8_ZoRT9jFq6-44" style="edgeStyle=orthogonalEdgeStyle;rounded=0;orthogonalLoop=1;jettySize=auto;html=1;exitX=0.5;exitY=0;exitDx=0;exitDy=0;entryX=0;entryY=0.5;entryDx=0;entryDy=0;" edge="1" parent="WIyWlLk6GJQsqaUBKTNV-1" source="MOzvQSzUL8_ZoRT9jFq6-39" target="TI1AnW4KjMh2wORwY0Ot-86">
          <mxGeometry relative="1" as="geometry" />
        </mxCell>
        <mxCell id="MOzvQSzUL8_ZoRT9jFq6-39" value="&lt;div&gt;Are there&amp;nbsp;&lt;/div&gt;&lt;div&gt;nodes left&amp;nbsp;&lt;/div&gt;&lt;div&gt;to test in&lt;/div&gt;route &lt;i&gt;L&lt;/i&gt;?" style="rhombus;whiteSpace=wrap;html=1;fillColor=none;" vertex="1" parent="WIyWlLk6GJQsqaUBKTNV-1">
          <mxGeometry x="128" y="408" width="112.08" height="110" as="geometry" />
        </mxCell>
        <mxCell id="MOzvQSzUL8_ZoRT9jFq6-41" style="edgeStyle=orthogonalEdgeStyle;rounded=0;orthogonalLoop=1;jettySize=auto;html=1;entryX=0.493;entryY=1;entryDx=0;entryDy=0;entryPerimeter=0;" edge="1" parent="WIyWlLk6GJQsqaUBKTNV-1" source="TI1AnW4KjMh2wORwY0Ot-68" target="MOzvQSzUL8_ZoRT9jFq6-39">
          <mxGeometry relative="1" as="geometry">
            <Array as="points">
              <mxPoint x="183" y="660" />
            </Array>
          </mxGeometry>
        </mxCell>
        <mxCell id="MOzvQSzUL8_ZoRT9jFq6-43" value="Yes" style="text;html=1;align=center;verticalAlign=middle;resizable=0;points=[];autosize=1;strokeColor=none;fillColor=none;" vertex="1" parent="WIyWlLk6GJQsqaUBKTNV-1">
          <mxGeometry x="228" y="440" width="40" height="30" as="geometry" />
        </mxCell>
        <mxCell id="MOzvQSzUL8_ZoRT9jFq6-45" value="No" style="text;html=1;align=center;verticalAlign=middle;resizable=0;points=[];autosize=1;strokeColor=none;fillColor=none;" vertex="1" parent="WIyWlLk6GJQsqaUBKTNV-1">
          <mxGeometry x="178" y="390" width="40" height="30" as="geometry" />
        </mxCell>
        <mxCell id="MOzvQSzUL8_ZoRT9jFq6-50" style="edgeStyle=orthogonalEdgeStyle;rounded=0;orthogonalLoop=1;jettySize=auto;html=1;entryX=1;entryY=0.5;entryDx=0;entryDy=0;" edge="1" parent="WIyWlLk6GJQsqaUBKTNV-1" source="MOzvQSzUL8_ZoRT9jFq6-46" target="TI1AnW4KjMh2wORwY0Ot-87">
          <mxGeometry relative="1" as="geometry" />
        </mxCell>
        <mxCell id="MOzvQSzUL8_ZoRT9jFq6-56" style="edgeStyle=orthogonalEdgeStyle;rounded=0;orthogonalLoop=1;jettySize=auto;html=1;exitX=1;exitY=0.5;exitDx=0;exitDy=0;entryX=1;entryY=0.5;entryDx=0;entryDy=0;" edge="1" parent="WIyWlLk6GJQsqaUBKTNV-1" source="MOzvQSzUL8_ZoRT9jFq6-46" target="TI1AnW4KjMh2wORwY0Ot-62">
          <mxGeometry relative="1" as="geometry">
            <Array as="points">
              <mxPoint x="738" y="463" />
              <mxPoint x="738" y="265" />
            </Array>
          </mxGeometry>
        </mxCell>
        <mxCell id="MOzvQSzUL8_ZoRT9jFq6-46" value="&lt;div&gt;Are there&amp;nbsp;&lt;/div&gt;&lt;div&gt;routes left&amp;nbsp;&lt;/div&gt;&lt;div&gt;to test?&lt;/div&gt;" style="rhombus;whiteSpace=wrap;html=1;fillColor=none;" vertex="1" parent="WIyWlLk6GJQsqaUBKTNV-1">
          <mxGeometry x="608" y="417" width="92.08" height="92" as="geometry" />
        </mxCell>
        <mxCell id="MOzvQSzUL8_ZoRT9jFq6-49" style="edgeStyle=orthogonalEdgeStyle;rounded=0;orthogonalLoop=1;jettySize=auto;html=1;entryX=-0.006;entryY=0.454;entryDx=0;entryDy=0;entryPerimeter=0;" edge="1" parent="WIyWlLk6GJQsqaUBKTNV-1" source="MOzvQSzUL8_ZoRT9jFq6-39" target="TI1AnW4KjMh2wORwY0Ot-87">
          <mxGeometry relative="1" as="geometry" />
        </mxCell>
        <mxCell id="MOzvQSzUL8_ZoRT9jFq6-51" value="Yes" style="text;html=1;align=center;verticalAlign=middle;resizable=0;points=[];autosize=1;strokeColor=none;fillColor=none;" vertex="1" parent="WIyWlLk6GJQsqaUBKTNV-1">
          <mxGeometry x="568" y="440" width="40" height="30" as="geometry" />
        </mxCell>
        <mxCell id="MOzvQSzUL8_ZoRT9jFq6-52" value="No" style="text;html=1;align=center;verticalAlign=middle;resizable=0;points=[];autosize=1;strokeColor=none;fillColor=none;" vertex="1" parent="WIyWlLk6GJQsqaUBKTNV-1">
          <mxGeometry x="688.3399999999999" y="440" width="40" height="30" as="geometry" />
        </mxCell>
        <mxCell id="MOzvQSzUL8_ZoRT9jFq6-59" style="edgeStyle=orthogonalEdgeStyle;rounded=0;orthogonalLoop=1;jettySize=auto;html=1;exitX=0.5;exitY=1;exitDx=0;exitDy=0;entryX=0;entryY=0.5;entryDx=0;entryDy=0;" edge="1" parent="WIyWlLk6GJQsqaUBKTNV-1" source="MOzvQSzUL8_ZoRT9jFq6-57" target="TI1AnW4KjMh2wORwY0Ot-85">
          <mxGeometry relative="1" as="geometry">
            <Array as="points">
              <mxPoint x="248" y="316" />
              <mxPoint x="248" y="327" />
            </Array>
          </mxGeometry>
        </mxCell>
        <mxCell id="MOzvQSzUL8_ZoRT9jFq6-64" style="edgeStyle=orthogonalEdgeStyle;rounded=0;orthogonalLoop=1;jettySize=auto;html=1;entryX=1;entryY=0.5;entryDx=0;entryDy=0;" edge="1" parent="WIyWlLk6GJQsqaUBKTNV-1" source="MOzvQSzUL8_ZoRT9jFq6-57" target="MOzvQSzUL8_ZoRT9jFq6-8">
          <mxGeometry relative="1" as="geometry" />
        </mxCell>
        <mxCell id="MOzvQSzUL8_ZoRT9jFq6-57" value="&lt;div&gt;Are there&amp;nbsp;&lt;/div&gt;&lt;div&gt;customers left&amp;nbsp;&lt;/div&gt;&lt;div&gt;to test?&lt;/div&gt;" style="rhombus;whiteSpace=wrap;html=1;fillColor=none;" vertex="1" parent="WIyWlLk6GJQsqaUBKTNV-1">
          <mxGeometry x="198" y="214.5" width="102.08" height="101" as="geometry" />
        </mxCell>
        <mxCell id="MOzvQSzUL8_ZoRT9jFq6-60" value="Yes" style="text;html=1;align=center;verticalAlign=middle;resizable=0;points=[];autosize=1;strokeColor=none;fillColor=none;" vertex="1" parent="WIyWlLk6GJQsqaUBKTNV-1">
          <mxGeometry x="248.04" y="307" width="40" height="30" as="geometry" />
        </mxCell>
        <mxCell id="MOzvQSzUL8_ZoRT9jFq6-62" value="No" style="text;html=1;align=center;verticalAlign=middle;resizable=0;points=[];autosize=1;strokeColor=none;fillColor=none;" vertex="1" parent="WIyWlLk6GJQsqaUBKTNV-1">
          <mxGeometry x="168.04" y="240" width="40" height="30" as="geometry" />
        </mxCell>
        <mxCell id="MOzvQSzUL8_ZoRT9jFq6-65" style="edgeStyle=orthogonalEdgeStyle;rounded=0;orthogonalLoop=1;jettySize=auto;html=1;exitX=0.5;exitY=0;exitDx=0;exitDy=0;entryX=0.021;entryY=0.541;entryDx=0;entryDy=0;entryPerimeter=0;" edge="1" parent="WIyWlLk6GJQsqaUBKTNV-1" source="MOzvQSzUL8_ZoRT9jFq6-8" target="TI1AnW4KjMh2wORwY0Ot-59">
          <mxGeometry relative="1" as="geometry">
            <Array as="points">
              <mxPoint x="133" y="206" />
              <mxPoint x="270" y="206" />
            </Array>
          </mxGeometry>
        </mxCell>
        <mxCell id="MOzvQSzUL8_ZoRT9jFq6-66" value="No" style="text;html=1;align=center;verticalAlign=middle;resizable=0;points=[];autosize=1;strokeColor=none;fillColor=none;" vertex="1" parent="WIyWlLk6GJQsqaUBKTNV-1">
          <mxGeometry x="118" y="178" width="40" height="30" as="geometry" />
        </mxCell>
        <mxCell id="MOzvQSzUL8_ZoRT9jFq6-67" value="Yes" style="text;html=1;align=center;verticalAlign=middle;resizable=0;points=[];autosize=1;strokeColor=none;fillColor=none;" vertex="1" parent="WIyWlLk6GJQsqaUBKTNV-1">
          <mxGeometry x="50" y="240" width="40" height="30" as="geometry" />
        </mxCell>
        <mxCell id="MOzvQSzUL8_ZoRT9jFq6-73" value="" style="edgeStyle=orthogonalEdgeStyle;rounded=0;orthogonalLoop=1;jettySize=auto;html=1;" edge="1" parent="WIyWlLk6GJQsqaUBKTNV-1" source="MOzvQSzUL8_ZoRT9jFq6-71" target="MOzvQSzUL8_ZoRT9jFq6-10">
          <mxGeometry relative="1" as="geometry" />
        </mxCell>
        <mxCell id="MOzvQSzUL8_ZoRT9jFq6-71" value="Do the removal procedure for selected customer" style="rounded=1;whiteSpace=wrap;html=1;fillColor=none;" vertex="1" parent="WIyWlLk6GJQsqaUBKTNV-1">
          <mxGeometry x="340.21" y="770" width="204.91" height="40" as="geometry" />
        </mxCell>
      </root>
    </mxGraphModel>
  </diagram>
</mxfile>
